<svg id="Layer_1" data-name="Layer 1" xmlns="http://www.w3.org/2000/svg" viewBox="0 0 25 25"><defs><style>.cls-1{fill:#fff}</style></defs><title>no-connection</title><path class="cls-1" d="M11 22v1a8.15 8.15 0 0 1 5.48-2A8.3 8.3 0 0 1 22 23v-1a8.3 8.3 0 0 0-5.52-2A8.15 8.15 0 0 0 11 22z" transform="translate(-4 -4)"/><circle class="cls-1" cx="8" cy="10" r="1"/><path class="cls-1" transform="rotate(-34 2.463 16.043)" d="M9 11h4v1H9z"/><path class="cls-1" transform="rotate(-56 16.238 13.266)" d="M21.5 9.5h1v4h-1z"/><circle class="cls-1" cx="17" cy="10" r="1"/><path class="cls-1" d="M16.5 4A12.5 12.5 0 1 0 29 16.5 12.5 12.5 0 0 0 16.5 4zm0 24A11.5 11.5 0 1 1 28 16.5 11.5 11.5 0 0 1 16.5 28z" transform="translate(-4 -4)"/></svg>