<svg id="Layer_1" data-name="Layer 1" xmlns="http://www.w3.org/2000/svg" viewBox="0 0 48 32"><defs><style>.cls-1{fill:#fff}</style></defs><title>envelope-icon</title><g id="Expanded"><path class="cls-1" d="M44 40H4a4 4 0 0 1-4-4V12a4 4 0 0 1 4-4h40a4 4 0 0 1 4 4v24a4 4 0 0 1-4 4zM4 10a2 2 0 0 0-2 2v24a2 2 0 0 0 2 2h40a2 2 0 0 0 2-2V12a2 2 0 0 0-2-2H4z" transform="translate(0 -8)"/><path class="cls-1" d="M24 29.2L6.5 17.8a1 1 0 1 1 1.1-1.7L24 26.8l16.5-10.6a1 1 0 1 1 1.1 1.7zM6 34a1.23 1.23 0 0 1-.8-.4 1 1 0 0 1 .3-1.4l9-6a1 1 0 1 1 1.1 1.7l-9 6c-.2 0-.4.1-.6.1zM42 34a1.42 1.42 0 0 1-.6-.2l-9-6a1 1 0 1 1 1.1-1.7l9 6a1 1 0 0 1 .3 1.4 1 1 0 0 1-.8.5z" transform="translate(0 -8)"/></g></svg>