<?xml version="1.0"?>
<svg xmlns="http://www.w3.org/2000/svg" id="Layer_1" data-name="Layer 1" viewBox="0 0 400 400">
<defs>
   <style>
     .cls-1{fill:#fff;}
     .cls-2{fill:#fff;}
     .cls-3{fill:#E71D36;}</style>
</defs>
<title>loader</title>
<path class="cls-1" d="M60.07,345.5V142.71a30,30,0,0,1,30-30h0v-30a15,15,0,0,1,15-15h15V7.51a7.51,7.51,0,1,1,15,0V67.6h15a15,15,0,0,1,15,15v30h0a30,30,0,0,1,30,30v60.09h52.58V157.73h30V135.2h45.07v22.53h7.51V345.5H60.07ZM150.2,90.13a7.51,7.51,0,0,0-7.51-7.51h-30a7.51,7.51,0,0,0-7.51,7.51v22.53H150.2V90.13Zm30,52.58a15,15,0,0,0-15-15H90.11a15,15,0,0,0-15,15V330.48H180.24V142.71Zm67.6,75.11H195.27V330.48h52.58V217.81Zm67.6-45.07H262.86V330.48h52.58V172.75Zm-30,22.53h7.51a7.5,7.5,0,0,1,7.51,7.51v7.51a7.5,7.5,0,0,1-7.51,7.51H285.4a7.5,7.5,0,0,1-7.51-7.51v-7.51A7.5,7.5,0,0,1,285.4,195.28Zm0,45.07h7.51a7.5,7.5,0,0,1,7.51,7.51v7.51a7.5,7.5,0,0,1-7.51,7.51H285.4a7.5,7.5,0,0,1-7.51-7.51v-7.51A7.5,7.5,0,0,1,285.4,240.35Zm0,45.07h7.51a7.5,7.5,0,0,1,7.51,7.51v7.51a7.5,7.5,0,0,1-7.51,7.51H285.4a7.5,7.5,0,0,1-7.51-7.51v-7.51A7.5,7.5,0,0,1,285.4,285.41Zm-67.6-45.07h7.51a7.5,7.5,0,0,1,7.51,7.51v7.51a7.5,7.5,0,0,1-7.51,7.51H217.8a7.5,7.5,0,0,1-7.51-7.51v-7.51A7.5,7.5,0,0,1,217.8,240.35Zm0,45.07h7.51a7.5,7.5,0,0,1,7.51,7.51v7.51a7.5,7.5,0,0,1-7.51,7.51H217.8a7.5,7.5,0,0,1-7.51-7.51v-7.51A7.5,7.5,0,0,1,217.8,285.41Zm-67.6,22.53h-7.51a7.5,7.5,0,0,1-7.51-7.51v-7.51a7.51,7.51,0,0,1,7.51-7.51h7.51a7.51,7.51,0,0,1,7.51,7.51v7.51A7.5,7.5,0,0,1,150.2,307.95Zm0-45.07h-7.51a7.5,7.5,0,0,1-7.51-7.51v-7.51a7.51,7.51,0,0,1,7.51-7.51h7.51a7.51,7.51,0,0,1,7.51,7.51v7.51A7.5,7.5,0,0,1,150.2,262.88Zm0-45.07h-7.51a7.5,7.5,0,0,1-7.51-7.51v-7.51a7.51,7.51,0,0,1,7.51-7.51h7.51a7.51,7.51,0,0,1,7.51,7.51v7.51A7.5,7.5,0,0,1,150.2,217.81Zm0-45.07h-7.51a7.5,7.5,0,0,1-7.51-7.51v-7.51a7.51,7.51,0,0,1,7.51-7.51h7.51a7.51,7.51,0,0,1,7.51,7.51v7.51A7.5,7.5,0,0,1,150.2,172.75Zm-37.55,135.2h-7.51a7.5,7.5,0,0,1-7.51-7.51v-7.51a7.5,7.5,0,0,1,7.51-7.51h7.51a7.5,7.5,0,0,1,7.51,7.51v7.51A7.5,7.5,0,0,1,112.65,307.95Zm0-45.07h-7.51a7.5,7.5,0,0,1-7.51-7.51v-7.51a7.5,7.5,0,0,1,7.51-7.51h7.51a7.5,7.5,0,0,1,7.51,7.51v7.51A7.5,7.5,0,0,1,112.65,262.88Zm0-45.07h-7.51a7.5,7.5,0,0,1-7.51-7.51v-7.51a7.51,7.51,0,0,1,7.51-7.51h7.51a7.51,7.51,0,0,1,7.51,7.51v7.51A7.5,7.5,0,0,1,112.65,217.81Zm0-45.07h-7.51a7.5,7.5,0,0,1-7.51-7.51v-7.51a7.51,7.51,0,0,1,7.51-7.51h7.51a7.51,7.51,0,0,1,7.51,7.51v7.51A7.5,7.5,0,0,1,112.65,172.75Z">
  <animateTransform attributeName="transform"
                         attributeType="XML"
                         type="translate"
                         from="450 0"
                         to="-450 0"
                         dur="5s"
                         repeatCount="indefinite"/>
</path>
<circle class="cls-3" cx="150.28" cy="348.65" r="13.77"/>
<circle class="cls-3" cx="271.61" cy="348.74" r="13.77"/>
<rect class="cls-3" x="89.44" y="202.93" width="215.11" height="148.14" rx="12" ry="12"/>
<path class="cls-1" d="M257.83,351.07H164s0,0.06,0,.09a13.65,13.65,0,0,1-1.89,6.85h97.63a13.65,13.65,0,0,1-1.89-6.85S257.83,351.1,257.83,351.07Z"/>
<path class="cls-1" d="M308,253.92H86a3.47,3.47,0,0,0-3.47,3.47v79.8A20.84,20.84,0,0,0,103.32,358h35a13.65,13.65,0,0,1-1.89-6.85s0-.06,0-0.09H103.32a13.89,13.89,0,0,1-13.88-13.88V260.86H304.56v76.33a13.89,13.89,0,0,1-13.88,13.88h-5.29s0,0.06,0,.09a13.65,13.65,0,0,1-1.89,6.85h7.17a20.84,20.84,0,0,0,20.82-20.82v-79.8A3.47,3.47,0,0,0,308,253.92Z"/>
<path class="cls-1" d="M308,258.45H86A3.47,3.47,0,0,1,82.5,255V216.81A20.84,20.84,0,0,1,103.32,196H290.68a20.84,20.84,0,0,1,20.82,20.82V255A3.47,3.47,0,0,1,308,258.45ZM89.44,251.51H304.56v-34.7a13.89,13.89,0,0,0-13.88-13.88H103.32a13.89,13.89,0,0,0-13.88,13.88v34.7Z"/>
<path class="cls-1" d="M197,244.57H169.24a10.42,10.42,0,0,1-10.41-10.41V223.75a10.42,10.42,0,0,1,10.41-10.41H197a10.42,10.42,0,0,1,10.41,10.41v10.41A10.42,10.42,0,0,1,197,244.57Zm-27.76-24.29a3.47,3.47,0,0,0-3.47,3.47v10.41a3.47,3.47,0,0,0,3.47,3.47H197a3.47,3.47,0,0,0,3.47-3.47V223.75a3.47,3.47,0,0,0-3.47-3.47H169.24Z"/>
<path class="cls-1" d="M252.51,244.57H224.76a10.42,10.42,0,0,1-10.41-10.41V223.75a10.42,10.42,0,0,1,10.41-10.41h27.76a10.42,10.42,0,0,1,10.41,10.41v10.41A10.42,10.42,0,0,1,252.51,244.57Zm-27.76-24.29a3.47,3.47,0,0,0-3.47,3.47v10.41a3.47,3.47,0,0,0,3.47,3.47h27.76a3.47,3.47,0,0,0,3.47-3.47V223.75a3.47,3.47,0,0,0-3.47-3.47H224.76Z"/>
<path class="cls-1" d="M141.49,244.57H113.73a10.42,10.42,0,0,1-10.41-10.41V223.75a10.42,10.42,0,0,1,10.41-10.41h27.76a10.42,10.42,0,0,1,10.41,10.41v10.41A10.42,10.42,0,0,1,141.49,244.57Zm-27.76-24.29a3.47,3.47,0,0,0-3.47,3.47v10.41a3.47,3.47,0,0,0,3.47,3.47h27.76a3.47,3.47,0,0,0,3.47-3.47V223.75a3.47,3.47,0,0,0-3.47-3.47H113.73Z"/>
<path class="cls-1" d="M124.14,307H113.73a10.42,10.42,0,0,1-10.41-10.41V279.26a10.42,10.42,0,0,1,10.41-10.41h10.41a10.42,10.42,0,0,1,10.41,10.41v17.35A10.42,10.42,0,0,1,124.14,307Zm-10.41-31.23a3.47,3.47,0,0,0-3.47,3.47v17.35a3.47,3.47,0,0,0,3.47,3.47h10.41a3.47,3.47,0,0,0,3.47-3.47V279.26a3.47,3.47,0,0,0-3.47-3.47H113.73Z"/>
<path class="cls-1" d="M162.3,307H151.9a10.42,10.42,0,0,1-10.41-10.41V279.26a10.42,10.42,0,0,1,10.41-10.41H162.3a10.42,10.42,0,0,1,10.41,10.41v17.35A10.42,10.42,0,0,1,162.3,307ZM151.9,275.79a3.47,3.47,0,0,0-3.47,3.47v17.35a3.47,3.47,0,0,0,3.47,3.47H162.3a3.47,3.47,0,0,0,3.47-3.47V279.26a3.47,3.47,0,0,0-3.47-3.47H151.9Z"/>
<path class="cls-1" d="M200.47,307H190.06a10.42,10.42,0,0,1-10.41-10.41V279.26a10.42,10.42,0,0,1,10.41-10.41h10.41a10.42,10.42,0,0,1,10.41,10.41v17.35A10.42,10.42,0,0,1,200.47,307Zm-10.41-31.23a3.47,3.47,0,0,0-3.47,3.47v17.35a3.47,3.47,0,0,0,3.47,3.47h10.41a3.47,3.47,0,0,0,3.47-3.47V279.26a3.47,3.47,0,0,0-3.47-3.47H190.06Z"/>
<path class="cls-1" d="M238.63,307H228.23a10.42,10.42,0,0,1-10.41-10.41V279.26a10.42,10.42,0,0,1,10.41-10.41h10.41A10.42,10.42,0,0,1,249,279.26v17.35A10.42,10.42,0,0,1,238.63,307Zm-10.41-31.23a3.47,3.47,0,0,0-3.47,3.47v17.35a3.47,3.47,0,0,0,3.47,3.47h10.41a3.47,3.47,0,0,0,3.47-3.47V279.26a3.47,3.47,0,0,0-3.47-3.47H228.23Z"/>
<path class="cls-1" d="M308,244.57H287.21a10.42,10.42,0,0,1-10.41-10.41V223.75a10.42,10.42,0,0,1,10.41-10.41H308a3.47,3.47,0,0,1,3.47,3.47V241.1A3.47,3.47,0,0,1,308,244.57Zm-20.82-24.29a3.47,3.47,0,0,0-3.47,3.47v10.41a3.47,3.47,0,0,0,3.47,3.47h17.35V220.28H287.21Z"/>
<path class="cls-1" d="M271.61,335a13.79,13.79,0,1,1-13.79,13.79A13.79,13.79,0,0,1,271.61,335m0-6.94a20.73,20.73,0,1,0,20.73,20.73A20.75,20.75,0,0,0,271.61,328h0Z"/>
<path class="cls-1" d="M304.56,373H89.44a3.5,3.5,0,0,1,0-7H304.56A3.5,3.5,0,0,1,304.56,373Z"/>
<path class="cls-1" d="M308,307h-34.7a10.42,10.42,0,0,1-10.41-10.41V279.26a10.42,10.42,0,0,1,10.41-10.41H308a3.47,3.47,0,0,1,3.47,3.47v31.23A3.47,3.47,0,0,1,308,307Zm-34.7-31.23a3.47,3.47,0,0,0-3.47,3.47v17.35a3.47,3.47,0,0,0,3.47,3.47h31.23V275.79H273.33Z"/>
<path class="cls-1" d="M150.18,335a13.79,13.79,0,1,1-13.79,13.79A13.79,13.79,0,0,1,150.18,335m0-6.94a20.73,20.73,0,1,0,20.73,20.73A20.75,20.75,0,0,0,150.18,328h0Z"/>
</svg>
