<svg id="Layer_1" data-name="Layer 1" xmlns="http://www.w3.org/2000/svg" viewBox="0 0 491.3 175.08"><defs><style>.cls-1{isolation:isolate;}.cls-2{fill:none;}</style></defs><title>logo-dark</title><g class="cls-1"><path d="M7.4,174.58v-71H21.2v71Z" transform="translate(-7.4 0)"/><path d="M49.8,129.08v45.5H36v-71H46.7l37,46.6v-46.5H97.5v70.9H86.3Z" transform="translate(-7.4 0)"/><path d="M170.2,174.58v-47l-18.3,35h-7.5l-18.3-35v47H112.3v-71h14.8l21,40.4,21.2-40.4H184v71Z" transform="translate(-7.4 0)"/><path d="M229.1,175.08a32.25,32.25,0,0,1-14.15-3,34.73,34.73,0,0,1-10.9-8.1,37.56,37.56,0,0,1-9.55-24.85,35.68,35.68,0,0,1,2.65-13.6,37.53,37.53,0,0,1,7.3-11.5,34.83,34.83,0,0,1,11.05-8,32.81,32.81,0,0,1,13.9-3,31.17,31.17,0,0,1,14,3.15,35.09,35.09,0,0,1,10.85,8.25,38,38,0,0,1,7,11.6,36.52,36.52,0,0,1,2.5,13.2,35.91,35.91,0,0,1-2.6,13.55,36.84,36.84,0,0,1-7.2,11.4,34.63,34.63,0,0,1-11,7.9A32.78,32.78,0,0,1,229.1,175.08Zm-20.6-36a28.53,28.53,0,0,0,1.4,8.9,23.73,23.73,0,0,0,4,7.6,20.12,20.12,0,0,0,6.5,5.3,20.14,20.14,0,0,0,17.6,0,20.14,20.14,0,0,0,6.5-5.45,24.29,24.29,0,0,0,4-7.65,28.41,28.41,0,0,0,1.35-8.65,27.7,27.7,0,0,0-1.45-8.9,24.58,24.58,0,0,0-4.1-7.6,19.59,19.59,0,0,0-6.5-5.25,20.25,20.25,0,0,0-17.55.1,19.74,19.74,0,0,0-6.5,5.4,24.25,24.25,0,0,0-3.95,7.6A28.41,28.41,0,0,0,208.5,139.08Z" transform="translate(-7.4 0)"/><path d="M324.2,115.68H301.5v58.9H287.8v-58.9H265.1v-12.1h59.1Z" transform="translate(-7.4 0)"/><path d="M333,174.58v-71h13.8v71Z" transform="translate(-7.4 0)"/><path d="M391.9,175.08a32.25,32.25,0,0,1-14.15-3,34.72,34.72,0,0,1-10.9-8.1,37.56,37.56,0,0,1-9.55-24.85,35.67,35.67,0,0,1,2.65-13.6,37.53,37.53,0,0,1,7.3-11.5,34.84,34.84,0,0,1,11-8,32.81,32.81,0,0,1,13.9-3,31.17,31.17,0,0,1,14,3.15,35.09,35.09,0,0,1,10.85,8.25,38,38,0,0,1,7,11.6,36.54,36.54,0,0,1,2.5,13.2,35.9,35.9,0,0,1-2.6,13.55,36.82,36.82,0,0,1-7.2,11.4,34.62,34.62,0,0,1-11,7.9A32.78,32.78,0,0,1,391.9,175.08Zm-20.6-36a28.53,28.53,0,0,0,1.4,8.9,23.74,23.74,0,0,0,4,7.6,20.11,20.11,0,0,0,6.5,5.3,20.14,20.14,0,0,0,17.6,0,20.15,20.15,0,0,0,6.5-5.45,24.3,24.3,0,0,0,4-7.65,28.42,28.42,0,0,0,1.35-8.65,27.7,27.7,0,0,0-1.45-8.9,24.58,24.58,0,0,0-4.1-7.6,19.59,19.59,0,0,0-6.5-5.25,20.25,20.25,0,0,0-17.55.1,19.73,19.73,0,0,0-6.5,5.4,24.24,24.24,0,0,0-4,7.6A28.41,28.41,0,0,0,371.3,139.08Z" transform="translate(-7.4 0)"/><path d="M451,129.08v45.5H437.2v-71h10.7l37,46.6v-46.5h13.8v70.9H487.5Z" transform="translate(-7.4 0)"/></g><path d="M43.27,51.41a3.91,3.91,0,0,0,2.87-1.32,4.07,4.07,0,0,0,1.1-3A4.18,4.18,0,0,0,46,44.17,3.8,3.8,0,0,0,43.05,43a3.91,3.91,0,0,0-2.87,1.32,4.27,4.27,0,0,0-1.16,3,3.9,3.9,0,0,0,1.27,2.92A4,4,0,0,0,43.27,51.41Z" transform="translate(-7.4 0)"/><path d="M57.22,65.36,51.15,62l-5-7.94a4.39,4.39,0,0,0-3.53-1.76,4.06,4.06,0,0,0-2.76,1.21l-7.45,7.61a2.43,2.43,0,0,0-.44,1l-1,8.49v.19a1.88,1.88,0,0,0,1.87,1.87,1.63,1.63,0,0,0,1.27-.55A2.38,2.38,0,0,0,34.72,71l.77-7.28L38.14,61,35.72,81.35l-4.31,9.59a3.86,3.86,0,0,0-.22,1.21,2.77,2.77,0,0,0,.83,2,2.44,2.44,0,0,0,2,.72,2.55,2.55,0,0,0,2.43-1.54L41.08,83a1.26,1.26,0,0,1,.11-.39q.11-.28.22-.5a1,1,0,0,0,.11-.44l.55-5L46.81,93a2.6,2.6,0,0,0,2.76,1.87A2.64,2.64,0,0,0,51.5,94a2.77,2.77,0,0,0,.83-2,.9.9,0,0,0-.06-.28.91.91,0,0,1-.06-.28L45.64,68.85l.77-7.39,1.87,3a2,2,0,0,0,.55.55l6.51,3.64a3.61,3.61,0,0,0,.88.22,1.73,1.73,0,0,0,1.32-.61,2,2,0,0,0,.55-1.38A1.73,1.73,0,0,0,57.22,65.36Z" transform="translate(-7.4 0)"/><path d="M159.76,69.28a1.83,1.83,0,0,1-1.38-.62L148.32,57.22a7.37,7.37,0,0,0-5.61-2.59H113.8A2.16,2.16,0,0,0,112,56.47v11a1.84,1.84,0,0,1-3.68,0h0v-11a5.79,5.79,0,0,1,5.47-5.52h28.91a11,11,0,0,1,8.38,3.85l10,11.42a1.84,1.84,0,0,1-1.38,3.05Z" transform="translate(-7.4 0)"/><path d="M166.26,76.79A7.31,7.31,0,1,1,159,84.1h0a7.31,7.31,0,0,1,7.31-7.31m0-3.68a11,11,0,1,0,11,11A11,11,0,0,0,166.26,73.11Z" transform="translate(-7.4 0)"/><path d="M176.41,65.66H106.49a11,11,0,1,0,0,22.07h2a7.23,7.23,0,0,1-1-3.63h-1a7.36,7.36,0,1,1-.54-14.71h70.46a7.36,7.36,0,0,1,0,14.71h-2.8a7.23,7.23,0,0,1-1,3.63h3.8a11,11,0,1,0,0-22.07Z" transform="translate(-7.4 0)"/><path d="M158.95,84H122.07a7.23,7.23,0,0,1-1,3.63h38.87a7.23,7.23,0,0,1-1-3.63S158.95,84.07,158.95,84Z" transform="translate(-7.4 0)"/><path d="M114.77,76.79a7.31,7.31,0,1,1-7.31,7.31h0a7.31,7.31,0,0,1,7.31-7.31m0-3.68a11,11,0,1,0,11,11A11,11,0,0,0,114.77,73.11Z" transform="translate(-7.4 0)"/><line class="cls-2" x1="138.01" y1="74.85" x2="132.01" y2="74.85"/><path d="M145.1,76.85h-5.52a2,2,0,0,1,0-4h5.52a2,2,0,0,1,0,4Z" transform="translate(-7.4 0)"/><line class="cls-2" x1="191.01" y1="95.85" x2="77.01" y2="95.85"/><path d="M198.41,96.85h-114a2,2,0,0,1,0-4h114a2,2,0,0,1,0,4Z" transform="translate(-7.4 0)"/><path d="M75.07,96.85H9.53a2,2,0,1,1,0-4H75.08a2,2,0,0,1,0,4Z" transform="translate(-7.4 0)"/><path d="M475.92,92.64H360.1a12.9,12.9,0,0,1-12.89-12.88V41.1A12.9,12.9,0,0,1,360.1,28.22h99.31a12.64,12.64,0,0,1,11.89,7.54L487.87,74a13.42,13.42,0,0,1-1.21,12.71A12.9,12.9,0,0,1,475.92,92.64ZM360.1,32.51a8.6,8.6,0,0,0-8.59,8.59V79.75a8.6,8.6,0,0,0,8.59,8.59H475.92a8.51,8.51,0,0,0,7.16-4,9.13,9.13,0,0,0,.85-8.64L467.41,37.46a8.4,8.4,0,0,0-7.94-5Z" transform="translate(-7.4 0)"/><path d="M479.7,62.58H458.91a6.45,6.45,0,0,1-6.44-6.44V45.4A6.45,6.45,0,0,1,458.91,39h12.36a2.15,2.15,0,0,1,2,1.29l8.24,19a2.15,2.15,0,0,1-1.77,3.36ZM458.91,43.25a2.15,2.15,0,0,0-2.15,2.15V56.14a2.15,2.15,0,0,0,2.15,2.15h17.5l-6.53-15Z" transform="translate(-7.4 0)"/><path d="M495.2,96.85H341c-1.37,0-2.49-.63-2.49-2s1.11-2,2.49-2H495.2c1.37,0,2.49.63,2.49,2S496.57,96.85,495.2,96.85Z" transform="translate(-7.4 0)"/><path d="M398.78,84H381.6a2.15,2.15,0,0,1-2.15-2.15V45.4A6.45,6.45,0,0,1,385.89,39h8.59a6.45,6.45,0,0,1,6.44,6.44V81.91A2.15,2.15,0,0,1,398.78,84Zm-15-4.29h12.88V45.4a2.15,2.15,0,0,0-2.15-2.15h-8.59a2.15,2.15,0,0,0-2.15,2.15Z" transform="translate(-7.4 0)"/><path d="M368.71,62.58h-6.44a6.45,6.45,0,0,1-6.44-6.44V45.4A6.45,6.45,0,0,1,362.27,39h6.44a6.45,6.45,0,0,1,6.44,6.44V56.14A6.45,6.45,0,0,1,368.71,62.58Zm-6.44-19.33a2.15,2.15,0,0,0-2.15,2.15V56.14a2.15,2.15,0,0,0,2.15,2.15h6.44a2.15,2.15,0,0,0,2.15-2.15V45.4a2.15,2.15,0,0,0-2.15-2.15Z" transform="translate(-7.4 0)"/><path d="M418.1,62.58h-6.44a6.45,6.45,0,0,1-6.44-6.44V45.4A6.45,6.45,0,0,1,411.66,39h6.44a6.45,6.45,0,0,1,6.44,6.44V56.14A6.45,6.45,0,0,1,418.1,62.58Zm-6.44-19.33a2.15,2.15,0,0,0-2.15,2.15V56.14a2.15,2.15,0,0,0,2.15,2.15h6.44a2.15,2.15,0,0,0,2.15-2.15V45.4a2.15,2.15,0,0,0-2.15-2.15Z" transform="translate(-7.4 0)"/><path d="M441.73,62.58h-6.44a6.45,6.45,0,0,1-6.44-6.44V45.4A6.45,6.45,0,0,1,435.29,39h6.44a6.45,6.45,0,0,1,6.44,6.44V56.14A6.45,6.45,0,0,1,441.73,62.58Zm-6.44-19.33a2.15,2.15,0,0,0-2.15,2.15V56.14a2.15,2.15,0,0,0,2.15,2.15h6.44a2.15,2.15,0,0,0,2.15-2.15V45.4a2.15,2.15,0,0,0-2.15-2.15Z" transform="translate(-7.4 0)"/><path d="M329.05,34.17H207.55a1.9,1.9,0,0,1-1.9-1.9V11.39A11.4,11.4,0,0,1,217,0H319.56A11.4,11.4,0,0,1,331,11.39V32.27a1.9,1.9,0,0,1-1.9,1.9ZM209.41,30.38h117.7v-19a7.6,7.6,0,0,0-7.59-7.59H217.05a7.6,7.6,0,0,0-7.59,7.59Z" transform="translate(-7.4 0)"/><path d="M268.3,26.58H253.12a5.7,5.7,0,0,1-5.71-5.69s0,0,0,0v-5.7a5.7,5.7,0,0,1,5.7-5.7H268.3a5.7,5.7,0,0,1,5.7,5.7h0v5.7a5.7,5.7,0,0,1-5.67,5.73ZM253.11,13.29a1.9,1.9,0,0,0-1.9,1.9v5.66a1.9,1.9,0,0,0,1.9,1.9H268.3a1.9,1.9,0,0,0,1.9-1.9v-5.7a1.9,1.9,0,0,0-1.9-1.9Z" transform="translate(-7.4 0)"/><path d="M298.68,26.58H283.49a5.7,5.7,0,0,1-5.7-5.7h0v-5.7a5.7,5.7,0,0,1,5.7-5.7h15.19a5.7,5.7,0,0,1,5.7,5.7h0v5.67a5.7,5.7,0,0,1-5.67,5.73ZM283.49,13.29a1.9,1.9,0,0,0-1.9,1.9v5.66a1.9,1.9,0,0,0,1.9,1.9h15.19a1.9,1.9,0,0,0,1.9-1.9v-5.7a1.9,1.9,0,0,0-1.9-1.9Z" transform="translate(-7.4 0)"/><path d="M237.93,26.58H222.74a5.7,5.7,0,0,1-5.7-5.7h0v-5.7a5.7,5.7,0,0,1,5.7-5.7h15.19a5.7,5.7,0,0,1,5.7,5.7h0v5.67A5.7,5.7,0,0,1,238,26.58ZM222.74,13.29a1.9,1.9,0,0,0-1.9,1.9v5.66a1.9,1.9,0,0,0,1.9,1.9h15.19a1.9,1.9,0,0,0,1.9-1.9v-5.7a1.9,1.9,0,0,0-1.9-1.9Z" transform="translate(-7.4 0)"/><path d="M228.41,60.75h-5.7a5.7,5.7,0,0,1-5.7-5.7h0V45.56a5.7,5.7,0,0,1,5.7-5.7h5.7a5.7,5.7,0,0,1,5.7,5.7h0V55a5.7,5.7,0,0,1-5.7,5.7Zm-5.7-17.09a1.9,1.9,0,0,0-1.9,1.9V55a1.9,1.9,0,0,0,1.9,1.9h5.7a1.9,1.9,0,0,0,1.9-1.9V45.56a1.9,1.9,0,0,0-1.9-1.9Z" transform="translate(-7.4 0)"/><path d="M249.32,60.75h-5.7a5.7,5.7,0,0,1-5.7-5.7h0V45.56a5.7,5.7,0,0,1,5.7-5.7h5.7a5.7,5.7,0,0,1,5.7,5.7h0V55a5.7,5.7,0,0,1-5.7,5.7Zm-5.7-17.09a1.9,1.9,0,0,0-1.9,1.9V55a1.9,1.9,0,0,0,1.9,1.9h5.7a1.9,1.9,0,0,0,1.9-1.9V45.56a1.9,1.9,0,0,0-1.9-1.9Z" transform="translate(-7.4 0)"/><path d="M270.2,60.75h-5.7a5.7,5.7,0,0,1-5.7-5.7h0V45.56a5.7,5.7,0,0,1,5.7-5.7h5.7a5.7,5.7,0,0,1,5.7,5.7h0V55a5.7,5.7,0,0,1-5.7,5.7Zm-5.7-17.09a1.9,1.9,0,0,0-1.9,1.9V55a1.9,1.9,0,0,0,1.9,1.9h5.7a1.9,1.9,0,0,0,1.9-1.9V45.56a1.9,1.9,0,0,0-1.9-1.9Z" transform="translate(-7.4 0)"/><path d="M291.08,60.75h-5.67a5.7,5.7,0,0,1-5.7-5.7h0V45.56a5.7,5.7,0,0,1,5.69-5.71h5.71a5.7,5.7,0,0,1,5.7,5.7h0V55a5.7,5.7,0,0,1-5.69,5.71Zm-5.67-17.08a1.9,1.9,0,0,0-1.9,1.9v9.49a1.9,1.9,0,0,0,1.9,1.9h5.7a1.9,1.9,0,0,0,1.9-1.9V45.57a1.9,1.9,0,0,0-1.9-1.9Z" transform="translate(-7.4 0)"/><path d="M329.05,26.58H317.66a5.7,5.7,0,0,1-5.7-5.7h0v-5.7a5.7,5.7,0,0,1,5.7-5.7h11.39a1.9,1.9,0,0,1,1.9,1.9V24.67a1.9,1.9,0,0,1-1.89,1.91ZM317.66,13.29a1.9,1.9,0,0,0-1.9,1.9v5.66a1.9,1.9,0,0,0,1.9,1.9h9.49V13.26Z" transform="translate(-7.4 0)"/><path d="M309.13,76a7.55,7.55,0,1,1-7.55,7.55h0A7.55,7.55,0,0,1,309.13,76m0-3.8a11.34,11.34,0,1,0,11.34,11.34h0A11.36,11.36,0,0,0,309.13,72.24Z" transform="translate(-7.4 0)"/><path d="M327.15,96.85H209.41a2,2,0,1,1,0-4h117.7a2,2,0,0,1,0,4Z" transform="translate(-7.4 0)"/><path d="M329.05,60.75h-19a5.7,5.7,0,0,1-5.7-5.7h0V45.56a5.7,5.7,0,0,1,5.7-5.7h19a1.9,1.9,0,0,1,1.9,1.9V58.85A1.9,1.9,0,0,1,329.05,60.75Zm-19-17.09a1.9,1.9,0,0,0-1.9,1.9V55a1.9,1.9,0,0,0,1.9,1.9h17.09V43.67Z" transform="translate(-7.4 0)"/><path d="M242.68,76a7.55,7.55,0,1,1-7.55,7.55h0A7.55,7.55,0,0,1,242.68,76m0-3.8A11.34,11.34,0,1,0,254,83.58h0A11.36,11.36,0,0,0,242.68,72.24Z" transform="translate(-7.4 0)"/><path d="M301.59,83.53H250.22a7.47,7.47,0,0,1-1,3.75h53.42a7.47,7.47,0,0,1-1-3.75S301.59,83.55,301.59,83.53Z" transform="translate(-7.4 0)"/><path d="M329.05,30.38H207.55a1.9,1.9,0,0,0-1.9,1.9V75.94A11.4,11.4,0,0,0,217,87.33h19.13a7.47,7.47,0,0,1-1-3.75h-18.1A7.6,7.6,0,0,1,209.48,76V34.17h117.7V75.94a7.6,7.6,0,0,1-7.59,7.59H316.7a7.47,7.47,0,0,1-1,3.75h3.92A11.4,11.4,0,0,0,331,75.89V32.28a1.9,1.9,0,0,0-1.9-1.9Z" transform="translate(-7.4 0)"/></svg>