<svg id="Layer_1" data-name="Layer 1" xmlns="http://www.w3.org/2000/svg" viewBox="0 0 491.3 175.08"><defs><style>.cls-1{isolation:isolate;}.cls-2{fill:#fff;}.cls-3{fill:none;}</style></defs><title>logo-light</title><g class="cls-1"><path class="cls-2" d="M-259,385.92v-71h13.8v71Z" transform="translate(258.95 -211.34)"/><path class="cls-2" d="M-216.55,340.42v45.5h-13.8v-71h10.7l37,46.6V315h13.8v70.9h-11.2Z" transform="translate(258.95 -211.34)"/><path class="cls-2" d="M-96.15,385.92v-47l-18.3,35H-122l-18.3-35v47h-13.8v-71h14.8l21,40.4,21.2-40.4h14.7v71Z" transform="translate(258.95 -211.34)"/><path class="cls-2" d="M-37.25,386.42a32.25,32.25,0,0,1-14.15-3,34.73,34.73,0,0,1-10.9-8.1,36.78,36.78,0,0,1-7-11.55,36.74,36.74,0,0,1-2.5-13.3,35.68,35.68,0,0,1,2.65-13.6,37.53,37.53,0,0,1,7.3-11.5,34.83,34.83,0,0,1,11.05-8,32.81,32.81,0,0,1,13.9-3,31.17,31.17,0,0,1,14,3.15,35.09,35.09,0,0,1,10.85,8.25,38,38,0,0,1,7,11.6,36.53,36.53,0,0,1,2.5,13.2,35.91,35.91,0,0,1-2.6,13.55,36.84,36.84,0,0,1-7.2,11.4,34.63,34.63,0,0,1-11,7.9A32.78,32.78,0,0,1-37.25,386.42Zm-20.6-36a28.53,28.53,0,0,0,1.4,8.9,23.73,23.73,0,0,0,4,7.6,20.12,20.12,0,0,0,6.5,5.3,18.68,18.68,0,0,0,8.75,2,18.54,18.54,0,0,0,8.85-2,20.14,20.14,0,0,0,6.5-5.45,24.29,24.29,0,0,0,4-7.65,28.41,28.41,0,0,0,1.35-8.65,27.7,27.7,0,0,0-1.45-8.9,24.58,24.58,0,0,0-4.1-7.6,19.59,19.59,0,0,0-6.5-5.25,18.88,18.88,0,0,0-8.65-2,18.86,18.86,0,0,0-8.9,2,19.74,19.74,0,0,0-6.5,5.4,24.25,24.25,0,0,0-3.95,7.6A28.41,28.41,0,0,0-57.85,350.42Z" transform="translate(258.95 -211.34)"/><path class="cls-2" d="M57.85,327H35.15v58.9H21.45V327H-1.25v-12.1h59.1Z" transform="translate(258.95 -211.34)"/><path class="cls-2" d="M66.65,385.92v-71h13.8v71Z" transform="translate(258.95 -211.34)"/><path class="cls-2" d="M125.55,386.42a32.25,32.25,0,0,1-14.15-3,34.72,34.72,0,0,1-10.9-8.1,37.56,37.56,0,0,1-9.55-24.85,35.67,35.67,0,0,1,2.65-13.6,37.53,37.53,0,0,1,7.3-11.5,34.84,34.84,0,0,1,11-8,32.81,32.81,0,0,1,13.9-3,31.17,31.17,0,0,1,14,3.15,35.09,35.09,0,0,1,10.85,8.25,38,38,0,0,1,7,11.6,36.54,36.54,0,0,1,2.5,13.2,35.9,35.9,0,0,1-2.6,13.55,36.82,36.82,0,0,1-7.2,11.4,34.62,34.62,0,0,1-11,7.9A32.78,32.78,0,0,1,125.55,386.42Zm-20.6-36a28.53,28.53,0,0,0,1.4,8.9,23.74,23.74,0,0,0,4,7.6,20.11,20.11,0,0,0,6.5,5.3,20.14,20.14,0,0,0,17.6,0,20.15,20.15,0,0,0,6.5-5.45,24.3,24.3,0,0,0,4-7.65,28.42,28.42,0,0,0,1.35-8.65,27.7,27.7,0,0,0-1.45-8.9,24.58,24.58,0,0,0-4.1-7.6,19.59,19.59,0,0,0-6.5-5.25,20.25,20.25,0,0,0-17.55.1,19.73,19.73,0,0,0-6.5,5.4,24.24,24.24,0,0,0-4,7.6A28.41,28.41,0,0,0,104.95,350.42Z" transform="translate(258.95 -211.34)"/><path class="cls-2" d="M184.65,340.42v45.5h-13.8v-71h10.7l37,46.6V315h13.8v70.9h-11.2Z" transform="translate(258.95 -211.34)"/></g><path class="cls-2" d="M-223.08,262.75a3.91,3.91,0,0,0,2.87-1.32,4.07,4.07,0,0,0,1.1-3,4.18,4.18,0,0,0-1.27-2.92,3.8,3.8,0,0,0-2.92-1.16,3.91,3.91,0,0,0-2.87,1.32,4.27,4.27,0,0,0-1.16,3,3.9,3.9,0,0,0,1.27,2.92A4,4,0,0,0-223.08,262.75Z" transform="translate(258.95 -211.34)"/><path class="cls-2" d="M-209.13,276.7l-6.07-3.31-5-7.94a4.39,4.39,0,0,0-3.53-1.76,4.06,4.06,0,0,0-2.76,1.21l-7.45,7.61a2.43,2.43,0,0,0-.44,1l-1,8.49v.19a1.88,1.88,0,0,0,1.87,1.87,1.63,1.63,0,0,0,1.27-.55,2.38,2.38,0,0,0,.61-1.21l.77-7.28,2.65-2.65-2.42,20.32-4.31,9.59a3.86,3.86,0,0,0-.22,1.21,2.77,2.77,0,0,0,.83,2,2.44,2.44,0,0,0,2,.72,2.55,2.55,0,0,0,2.43-1.54l4.63-10.37a1.26,1.26,0,0,1,.11-.39q.11-.28.22-.5a1,1,0,0,0,.11-.44l.55-5,4.74,16.32a2.6,2.6,0,0,0,2.76,1.87,2.64,2.64,0,0,0,1.93-.83,2.77,2.77,0,0,0,.83-2,.9.9,0,0,0-.06-.28.91.91,0,0,1-.06-.28l-6.57-22.58.77-7.39,1.87,3a2,2,0,0,0,.55.55L-211,280a3.61,3.61,0,0,0,.88.22,1.73,1.73,0,0,0,1.32-.61,2,2,0,0,0,.55-1.38A1.73,1.73,0,0,0-209.13,276.7Z" transform="translate(258.95 -211.34)"/><path class="cls-2" d="M-106.59,280.62A1.83,1.83,0,0,1-108,280L-118,268.56a7.37,7.37,0,0,0-5.61-2.59h-28.91a2.16,2.16,0,0,0-1.79,1.84v11a1.84,1.84,0,0,1-1.84,1.84,1.84,1.84,0,0,1-1.84-1.84h0v-11a5.79,5.79,0,0,1,5.47-5.52h28.91a11,11,0,0,1,8.38,3.85l10,11.42a1.84,1.84,0,0,1-.18,2.6,1.84,1.84,0,0,1-1.2.45Z" transform="translate(258.95 -211.34)"/><path class="cls-2" d="M-100.09,288.13a7.31,7.31,0,0,1,7.31,7.31,7.31,7.31,0,0,1-7.31,7.31,7.31,7.31,0,0,1-7.31-7.31h0a7.31,7.31,0,0,1,7.31-7.31m0-3.68a11,11,0,0,0-11,11,11,11,0,0,0,11,11,11,11,0,0,0,11-11A11,11,0,0,0-100.09,284.45Z" transform="translate(258.95 -211.34)"/><path class="cls-2" d="M-89.94,277h-69.92a11,11,0,0,0-11,11,11,11,0,0,0,11,11h2a7.23,7.23,0,0,1-1-3.63h-1a7.36,7.36,0,0,1-7.63-7.08,7.36,7.36,0,0,1,7.08-7.63h70.46a7.36,7.36,0,0,1,7.08,7.63,7.36,7.36,0,0,1-7.08,7.08h-2.8a7.23,7.23,0,0,1-1,3.63h3.8a11,11,0,0,0,11-11A11,11,0,0,0-89.94,277Z" transform="translate(258.95 -211.34)"/><path class="cls-2" d="M-107.4,295.39h-36.88a7.23,7.23,0,0,1-1,3.63h38.87a7.23,7.23,0,0,1-1-3.63S-107.4,295.41-107.4,295.39Z" transform="translate(258.95 -211.34)"/><path class="cls-2" d="M-151.58,288.13a7.31,7.31,0,0,1,7.31,7.31,7.31,7.31,0,0,1-7.31,7.31,7.31,7.31,0,0,1-7.31-7.31h0a7.31,7.31,0,0,1,7.31-7.31m0-3.68a11,11,0,0,0-11,11,11,11,0,0,0,11,11,11,11,0,0,0,11-11A11,11,0,0,0-151.58,284.45Z" transform="translate(258.95 -211.34)"/><line class="cls-3" x1="138.01" y1="74.85" x2="132.01" y2="74.85"/><path class="cls-2" d="M-121.25,288.19h-5.52a2,2,0,0,1-2-2,2,2,0,0,1,2-2h5.52a2,2,0,0,1,2,2A2,2,0,0,1-121.25,288.19Z" transform="translate(258.95 -211.34)"/><line class="cls-3" x1="191.01" y1="95.85" x2="77.01" y2="95.85"/><path class="cls-2" d="M-67.94,308.19h-114a2,2,0,0,1-2-2,2,2,0,0,1,2-2h114a2,2,0,0,1,2,2A2,2,0,0,1-67.94,308.19Z" transform="translate(258.95 -211.34)"/><path class="cls-2" d="M-191.28,308.19h-65.54a2,2,0,0,1-2-2,2,2,0,0,1,2-2h65.55a2,2,0,0,1,2,2,2,2,0,0,1-2,2Z" transform="translate(258.95 -211.34)"/><path class="cls-2" d="M209.57,304H93.75A12.9,12.9,0,0,1,80.86,291.1V252.44a12.9,12.9,0,0,1,12.89-12.88h99.31A12.64,12.64,0,0,1,205,247.1l16.57,38.25a13.42,13.42,0,0,1-1.21,12.71A12.9,12.9,0,0,1,209.57,304ZM93.75,243.85a8.6,8.6,0,0,0-8.59,8.59v38.65a8.6,8.6,0,0,0,8.59,8.59H209.57a8.51,8.51,0,0,0,7.16-4,9.13,9.13,0,0,0,.85-8.64L201.06,248.8a8.4,8.4,0,0,0-7.94-5Z" transform="translate(258.95 -211.34)"/><path class="cls-2" d="M213.35,273.92H192.56a6.45,6.45,0,0,1-6.44-6.44V256.74a6.45,6.45,0,0,1,6.44-6.44h12.36a2.15,2.15,0,0,1,2,1.29l8.24,19a2.15,2.15,0,0,1-1.77,3.36Zm-20.79-19.33a2.15,2.15,0,0,0-2.15,2.15v10.74a2.15,2.15,0,0,0,2.15,2.15h17.5l-6.53-15Z" transform="translate(258.95 -211.34)"/><path class="cls-2" d="M228.85,308.19H74.67c-1.37,0-2.49-.63-2.49-2s1.11-2,2.49-2H228.85c1.37,0,2.49.63,2.49,2S230.22,308.19,228.85,308.19Z" transform="translate(258.95 -211.34)"/><path class="cls-2" d="M132.43,295.39H115.25a2.15,2.15,0,0,1-2.15-2.15v-36.5a6.45,6.45,0,0,1,6.44-6.44h8.59a6.45,6.45,0,0,1,6.44,6.44v36.51A2.15,2.15,0,0,1,132.43,295.39Zm-15-4.29h12.88V256.74a2.15,2.15,0,0,0-2.15-2.15h-8.59a2.15,2.15,0,0,0-2.15,2.15Z" transform="translate(258.95 -211.34)"/><path class="cls-2" d="M102.36,273.92H95.92a6.45,6.45,0,0,1-6.44-6.44V256.74a6.45,6.45,0,0,1,6.44-6.44h6.44a6.45,6.45,0,0,1,6.44,6.44v10.74A6.45,6.45,0,0,1,102.36,273.92Zm-6.44-19.33a2.15,2.15,0,0,0-2.15,2.15v10.74a2.15,2.15,0,0,0,2.15,2.15h6.44a2.15,2.15,0,0,0,2.15-2.15V256.74a2.15,2.15,0,0,0-2.15-2.15Z" transform="translate(258.95 -211.34)"/><path class="cls-2" d="M151.75,273.92h-6.44a6.45,6.45,0,0,1-6.44-6.44V256.74a6.45,6.45,0,0,1,6.44-6.44h6.44a6.45,6.45,0,0,1,6.44,6.44v10.74A6.45,6.45,0,0,1,151.75,273.92Zm-6.44-19.33a2.15,2.15,0,0,0-2.15,2.15v10.74a2.15,2.15,0,0,0,2.15,2.15h6.44a2.15,2.15,0,0,0,2.15-2.15V256.74a2.15,2.15,0,0,0-2.15-2.15Z" transform="translate(258.95 -211.34)"/><path class="cls-2" d="M175.38,273.92h-6.44a6.45,6.45,0,0,1-6.44-6.44V256.74a6.45,6.45,0,0,1,6.44-6.44h6.44a6.45,6.45,0,0,1,6.44,6.44v10.74A6.45,6.45,0,0,1,175.38,273.92Zm-6.44-19.33a2.15,2.15,0,0,0-2.15,2.15v10.74a2.15,2.15,0,0,0,2.15,2.15h6.44a2.15,2.15,0,0,0,2.15-2.15V256.74a2.15,2.15,0,0,0-2.15-2.15Z" transform="translate(258.95 -211.34)"/><path class="cls-2" d="M62.7,245.51H-58.8a1.9,1.9,0,0,1-1.9-1.9V222.73a11.4,11.4,0,0,1,11.39-11.39H53.21A11.4,11.4,0,0,1,64.6,222.73v20.88a1.9,1.9,0,0,1-1.9,1.9Zm-119.64-3.79H60.76v-19a7.6,7.6,0,0,0-7.59-7.59H-49.3a7.6,7.6,0,0,0-7.59,7.59Z" transform="translate(258.95 -211.34)"/><path class="cls-2" d="M2,237.92H-13.23a5.7,5.7,0,0,1-5.71-5.69s0,0,0,0v-5.7a5.7,5.7,0,0,1,5.7-5.7H2a5.7,5.7,0,0,1,5.7,5.7h0v5.7A5.7,5.7,0,0,1,2,237.92Zm-15.19-13.29a1.9,1.9,0,0,0-1.9,1.9v5.66a1.9,1.9,0,0,0,1.9,1.9H2a1.9,1.9,0,0,0,1.9-1.9v-5.7a1.9,1.9,0,0,0-1.9-1.9Z" transform="translate(258.95 -211.34)"/><path class="cls-2" d="M32.33,237.92H17.14a5.7,5.7,0,0,1-5.7-5.7h0v-5.7a5.7,5.7,0,0,1,5.7-5.7H32.33a5.7,5.7,0,0,1,5.7,5.7h0v5.67a5.7,5.7,0,0,1-5.67,5.73ZM17.14,224.63a1.9,1.9,0,0,0-1.9,1.9v5.66a1.9,1.9,0,0,0,1.9,1.9H32.33a1.9,1.9,0,0,0,1.9-1.9v-5.7a1.9,1.9,0,0,0-1.9-1.9Z" transform="translate(258.95 -211.34)"/><path class="cls-2" d="M-28.42,237.92H-43.61a5.7,5.7,0,0,1-5.7-5.7h0v-5.7a5.7,5.7,0,0,1,5.7-5.7h15.19a5.7,5.7,0,0,1,5.7,5.7h0v5.67a5.7,5.7,0,0,1-5.67,5.73Zm-15.19-13.29a1.9,1.9,0,0,0-1.9,1.9v5.66a1.9,1.9,0,0,0,1.9,1.9h15.19a1.9,1.9,0,0,0,1.9-1.9v-5.7a1.9,1.9,0,0,0-1.9-1.9Z" transform="translate(258.95 -211.34)"/><path class="cls-2" d="M-37.94,272.09h-5.7a5.7,5.7,0,0,1-5.7-5.7h0V256.9a5.7,5.7,0,0,1,5.7-5.7h5.7a5.7,5.7,0,0,1,5.7,5.7h0v9.49a5.7,5.7,0,0,1-5.7,5.7ZM-43.64,255a1.9,1.9,0,0,0-1.9,1.9v9.49a1.9,1.9,0,0,0,1.9,1.9h5.7a1.9,1.9,0,0,0,1.9-1.9V256.9a1.9,1.9,0,0,0-1.9-1.9Z" transform="translate(258.95 -211.34)"/><path class="cls-2" d="M-17,272.09h-5.7a5.7,5.7,0,0,1-5.7-5.7h0V256.9a5.7,5.7,0,0,1,5.7-5.7H-17a5.7,5.7,0,0,1,5.7,5.7h0v9.49a5.7,5.7,0,0,1-5.7,5.7ZM-22.73,255a1.9,1.9,0,0,0-1.9,1.9v9.49a1.9,1.9,0,0,0,1.9,1.9H-17a1.9,1.9,0,0,0,1.9-1.9V256.9A1.9,1.9,0,0,0-17,255Z" transform="translate(258.95 -211.34)"/><path class="cls-2" d="M3.85,272.09h-5.7a5.7,5.7,0,0,1-5.7-5.7h0V256.9a5.7,5.7,0,0,1,5.7-5.7h5.7a5.7,5.7,0,0,1,5.7,5.7h0v9.49a5.7,5.7,0,0,1-5.7,5.7ZM-1.85,255a1.9,1.9,0,0,0-1.9,1.9v9.49a1.9,1.9,0,0,0,1.9,1.9h5.7a1.9,1.9,0,0,0,1.9-1.9V256.9a1.9,1.9,0,0,0-1.9-1.9Z" transform="translate(258.95 -211.34)"/><path class="cls-2" d="M24.73,272.09H19.06a5.7,5.7,0,0,1-5.7-5.7h0V256.9a5.7,5.7,0,0,1,5.69-5.71h5.71a5.7,5.7,0,0,1,5.7,5.7h0v9.49a5.7,5.7,0,0,1-5.69,5.71ZM19.06,255a1.9,1.9,0,0,0-1.9,1.9v9.49a1.9,1.9,0,0,0,1.9,1.9h5.7a1.9,1.9,0,0,0,1.9-1.9v-9.49a1.9,1.9,0,0,0-1.9-1.9Z" transform="translate(258.95 -211.34)"/><path class="cls-2" d="M62.7,237.92H51.31a5.7,5.7,0,0,1-5.7-5.7h0v-5.7a5.7,5.7,0,0,1,5.7-5.7H62.7a1.9,1.9,0,0,1,1.9,1.9V236a1.9,1.9,0,0,1-1.89,1.91ZM51.31,224.63a1.9,1.9,0,0,0-1.9,1.9v5.66a1.9,1.9,0,0,0,1.9,1.9H60.8V224.6Z" transform="translate(258.95 -211.34)"/><path class="cls-2" d="M42.78,287.38a7.55,7.55,0,1,1-7.55,7.55h0a7.55,7.55,0,0,1,7.55-7.55m0-3.8a11.34,11.34,0,1,0,11.34,11.34h0A11.36,11.36,0,0,0,42.78,283.58Z" transform="translate(258.95 -211.34)"/><path class="cls-2" d="M60.8,308.19H-56.94a2,2,0,0,1-2-2,2,2,0,0,1,2-2H60.76a2,2,0,0,1,0,4Z" transform="translate(258.95 -211.34)"/><path class="cls-2" d="M62.7,272.09h-19a5.7,5.7,0,0,1-5.7-5.7h0V256.9a5.7,5.7,0,0,1,5.7-5.7h19a1.9,1.9,0,0,1,1.9,1.9v17.09A1.9,1.9,0,0,1,62.7,272.09ZM43.7,255a1.9,1.9,0,0,0-1.9,1.9v9.49a1.9,1.9,0,0,0,1.9,1.9H60.79V255Z" transform="translate(258.95 -211.34)"/><path class="cls-2" d="M-23.67,287.38a7.55,7.55,0,0,1,7.55,7.55,7.55,7.55,0,0,1-7.55,7.55,7.55,7.55,0,0,1-7.55-7.55h0a7.55,7.55,0,0,1,7.55-7.55m0-3.8A11.34,11.34,0,0,0-35,294.92a11.34,11.34,0,0,0,11.34,11.34,11.34,11.34,0,0,0,11.34-11.34h0A11.36,11.36,0,0,0-23.67,283.58Z" transform="translate(258.95 -211.34)"/><path class="cls-2" d="M35.24,294.87H-16.13a7.47,7.47,0,0,1-1,3.75H36.29a7.47,7.47,0,0,1-1-3.75S35.24,294.89,35.24,294.87Z" transform="translate(258.95 -211.34)"/><path class="cls-2" d="M62.7,241.72H-58.8a1.9,1.9,0,0,0-1.9,1.9v43.66a11.4,11.4,0,0,0,11.39,11.39h19.13a7.47,7.47,0,0,1-1-3.75h-18.1a7.6,7.6,0,0,1-7.59-7.59V245.51H60.83v41.77a7.6,7.6,0,0,1-7.59,7.59H50.35a7.47,7.47,0,0,1-1,3.75h3.92a11.4,11.4,0,0,0,11.39-11.39V243.62a1.9,1.9,0,0,0-1.9-1.9Z" transform="translate(258.95 -211.34)"/></svg>