<svg id="Layer_1" data-name="Layer 1" xmlns="http://www.w3.org/2000/svg" viewBox="0 0 48 44.5"><defs><style>.cls-1{fill:#fff;}</style></defs><title>chat-heart</title><g id="Expanded"><path class="cls-1" d="M-156.61,15a0.9,0.9,0,0,1-.5-0.1c-0.5-.3-12.5-7.2-12.5-15.9,0-4.9,3.5-7.5,7-7.5a7.18,7.18,0,0,1,6,3.3,7.09,7.09,0,0,1,6.1-3.4,6.74,6.74,0,0,1,6.9,7c0,8-11.9,16.1-12.4,16.5A1.27,1.27,0,0,1-156.61,15Zm-6-21.5c-2.4,0-5,1.7-5,5.5,0,6.6,8.7,12.4,11,13.8,2.2-1.6,11-8.3,11-14.4a4.74,4.74,0,0,0-4.9-5,5.06,5.06,0,0,0-5.1,4.6,1,1,0,0,1-1,.8h0a1.08,1.08,0,0,1-1-.8A5,5,0,0,0-162.61-6.55Z" transform="translate(180.61 18.05)"/><path class="cls-1" d="M-177.91,26.45a0.91,0.91,0,0,1-.7-0.3,0.94,0.94,0,0,1-.2-1.1l4.8-9.6a18.36,18.36,0,0,1-6.6-13.7c0-10.9,10.8-19.8,24-19.8s24,8.9,24,19.8-10.8,19.8-24,19.8a30.87,30.87,0,0,1-8-1.1l-12.9,6h-0.4Zm21.3-42.5c-12.1,0-22,8-22,17.8a16,16,0,0,0,6.5,12.6,1,1,0,0,1,.3,1.2l-3.9,7.8,10.6-4.9a0.85,0.85,0,0,1,.7,0,25.37,25.37,0,0,0,7.8,1.1c12.1,0,22-8,22-17.8S-144.51-16.05-156.61-16.05Z" transform="translate(180.61 18.05)"/></g></svg>