<svg id="Layer_1" data-name="Layer 1" xmlns="http://www.w3.org/2000/svg" viewBox="0 0 48 32"><defs><style>.cls-1{fill:#fff;}</style></defs><title>envelope-icon</title><g id="Expanded"><path class="cls-1" d="M44,40H4a4,4,0,0,1-4-4V12A4,4,0,0,1,4,8H44a4,4,0,0,1,4,4V36A4,4,0,0,1,44,40ZM4,10a2,2,0,0,0-2,2V36a2,2,0,0,0,2,2H44a2,2,0,0,0,2-2V12a2,2,0,0,0-2-2H4Z" transform="translate(0 -8)"/><path class="cls-1" d="M24,29.2L6.5,17.8a1,1,0,1,1,1.1-1.7L24,26.8,40.5,16.2a1,1,0,1,1,1.1,1.7Z" transform="translate(0 -8)"/><path class="cls-1" d="M6,34a1.23,1.23,0,0,1-.8-0.4,1,1,0,0,1,.3-1.4l9-6a1,1,0,1,1,1.1,1.7l-9,6C6.4,33.9,6.2,34,6,34Z" transform="translate(0 -8)"/><path class="cls-1" d="M42,34a1.42,1.42,0,0,1-.6-0.2l-9-6a1,1,0,1,1,1.1-1.7l9,6a1,1,0,0,1,.3,1.4A1,1,0,0,1,42,34Z" transform="translate(0 -8)"/></g></svg>