<svg id="Layer_1" data-name="Layer 1" xmlns="http://www.w3.org/2000/svg" viewBox="0 0 38.67 58"><defs><style>.cls-1{fill:#e74c3c;}.cls-2{fill:#c0392b;}</style></defs><title>map-marker</title><path class="cls-1" d="M12-17A19.33,19.33,0,0,0-7.33,2.33a19.21,19.21,0,0,0,2.49,9.44c0.26,0.46.53,0.92,0.83,1.36L12,41,28,13.13c0.25-.36.46-0.75,0.68-1.13l0.15-.23a19.22,19.22,0,0,0,2.49-9.44A19.33,19.33,0,0,0,12-17Zm0,9.67A9.67,9.67,0,1,1,2.33,2.33,9.67,9.67,0,0,1,12-7.33Z" transform="translate(7.33 17)"/><path class="cls-2" d="M12-9.75A12.08,12.08,0,1,0,24.08,2.33,12.08,12.08,0,0,0,12-9.75Zm0,4.83A7.25,7.25,0,1,1,4.75,2.33,7.25,7.25,0,0,1,12-4.92Z" transform="translate(7.33 17)"/></svg>