<svg id="Layer_1" data-name="Layer 1" xmlns="http://www.w3.org/2000/svg" viewBox="0 0 25 25"><defs><style>.cls-1{fill:#fff;}</style></defs><title>no-connection</title><path class="cls-1" d="M11,22v1a8.15,8.15,0,0,1,5.48-2A8.3,8.3,0,0,1,22,23V22a8.3,8.3,0,0,0-5.52-2A8.15,8.15,0,0,0,11,22Z" transform="translate(-4 -4)"/><circle class="cls-1" cx="8" cy="10" r="1"/><rect class="cls-1" x="9" y="11" width="4" height="1" transform="translate(-8.55 4.12) rotate(-34)"/><rect class="cls-1" x="21.5" y="9.5" width="1" height="4" transform="translate(-3.84 19.31) rotate(-56)"/><circle class="cls-1" cx="17" cy="10" r="1"/><path class="cls-1" d="M16.5,4A12.5,12.5,0,1,0,29,16.5,12.5,12.5,0,0,0,16.5,4Zm0,24A11.5,11.5,0,1,1,28,16.5,11.5,11.5,0,0,1,16.5,28Z" transform="translate(-4 -4)"/></svg>