<svg id="Layer_1" data-name="Layer 1" xmlns="http://www.w3.org/2000/svg" viewBox="0 0 26 28"><title>notification-icon</title><path d="M28.86,25.49L26,20.72V14a10,10,0,0,0-9-9.95V3a1,1,0,0,0-2,0V5a1,1,0,0,0,1,1,8,8,0,0,1,8,8v7a1,1,0,0,0,.14.51L26.23,25H5.77l2.09-3.49A1,1,0,0,0,8,21V14a8,8,0,0,1,4.59-7.24A1,1,0,0,0,11.73,5,10.05,10.05,0,0,0,6,14v6.72L3.14,25.49A1,1,0,0,0,4,27h8.14a4,4,0,0,0,7.72,0H28A1,1,0,0,0,28.86,25.49ZM16,28a2,2,0,0,1-1.72-1h3.44A2,2,0,0,1,16,28Z" transform="translate(-3 -2)"/></svg>