<svg id="Camada_1" data-name="Camada 1" xmlns="http://www.w3.org/2000/svg" viewBox="0 0 66 32"><defs><style>.cls-1{fill:#fff;}</style></defs><title>tube</title><path class="cls-1" d="M219.24,582H173a5,5,0,0,0-5,5v18a5,5,0,0,0,5,5h53.93a5.24,5.24,0,0,0,4.65-7.28l-7.72-17.81A4.91,4.91,0,0,0,219.24,582Z" transform="translate(-166.99 -581)"/><path d="M226.92,611H173a6,6,0,0,1-6-6V587a6,6,0,0,1,6-6h46.25a5.88,5.88,0,0,1,5.54,3.51l7.71,17.81a6.25,6.25,0,0,1-.56,5.92A6,6,0,0,1,226.92,611ZM173,583a4,4,0,0,0-4,4v18a4,4,0,0,0,4,4h53.93a4,4,0,0,0,3.33-1.86,4.25,4.25,0,0,0,.4-4l-7.71-17.81a3.91,3.91,0,0,0-3.7-2.31H173Z" transform="translate(-166.99 -581)"/><path class="cls-1" d="M219,587h5.75l3.91,9H219a2,2,0,0,1-2-2v-5A2,2,0,0,1,219,587Z" transform="translate(-166.99 -581)"/><path d="M228.68,597H219a3,3,0,0,1-3-3v-5a3,3,0,0,1,3-3h5.75a1,1,0,0,1,.92.6l3.83,8.83A1,1,0,0,1,228.68,597ZM219,588a1,1,0,0,0-1,1v5a1,1,0,0,0,1,1h8.14l-3-7H219Z" transform="translate(-166.99 -581)"/><path class="cls-1" d="M173,610a5,5,0,0,1-5-5v-5h62.41l1.18,2.73a5.24,5.24,0,0,1-4.65,7.28H173Z" transform="translate(-166.99 -581)"/><path d="M226.92,611H173a6,6,0,0,1-6-6v-5a1,1,0,0,1,1-1h62.41a1,1,0,0,1,.92.6l1.18,2.73a6.25,6.25,0,0,1-.56,5.92A6,6,0,0,1,226.92,611ZM169,601v4a4,4,0,0,0,4,4h53.93a4,4,0,0,0,3.33-1.86,4.25,4.25,0,0,0,.4-4L229.74,601H169Z" transform="translate(-166.99 -581)"/><path d="M231,613H169a1,1,0,0,1,0-2h62A1,1,0,0,1,231,613Z" transform="translate(-166.99 -581)"/><path class="cls-1" d="M185,587h4a2,2,0,0,1,2,2v17h-8V589A2,2,0,0,1,185,587Z" transform="translate(-166.99 -581)"/><path d="M191,607h-8a1,1,0,0,1-1-1V589a3,3,0,0,1,3-3h4a3,3,0,0,1,3,3v17A1,1,0,0,1,191,607Zm-7-2h6V589a1,1,0,0,0-1-1h-4a1,1,0,0,0-1,1v16Z" transform="translate(-166.99 -581)"/><rect class="cls-1" x="5.01" y="6" width="7" height="9" rx="2" ry="2"/><path d="M177,597h-3a3,3,0,0,1-3-3v-5a3,3,0,0,1,3-3h3a3,3,0,0,1,3,3v5A3,3,0,0,1,177,597Zm-3-9a1,1,0,0,0-1,1v5a1,1,0,0,0,1,1h3a1,1,0,0,0,1-1v-5a1,1,0,0,0-1-1h-3Z" transform="translate(-166.99 -581)"/><rect class="cls-1" x="28.01" y="6" width="7" height="9" rx="2" ry="2"/><path d="M200,597h-3a3,3,0,0,1-3-3v-5a3,3,0,0,1,3-3h3a3,3,0,0,1,3,3v5A3,3,0,0,1,200,597Zm-3-9a1,1,0,0,0-1,1v5a1,1,0,0,0,1,1h3a1,1,0,0,0,1-1v-5a1,1,0,0,0-1-1h-3Z" transform="translate(-166.99 -581)"/><rect class="cls-1" x="39.01" y="6" width="7" height="9" rx="2" ry="2"/><path d="M211,597h-3a3,3,0,0,1-3-3v-5a3,3,0,0,1,3-3h3a3,3,0,0,1,3,3v5A3,3,0,0,1,211,597Zm-3-9a1,1,0,0,0-1,1v5a1,1,0,0,0,1,1h3a1,1,0,0,0,1-1v-5a1,1,0,0,0-1-1h-3Z" transform="translate(-166.99 -581)"/></svg>