<svg id="Camada_1" data-name="Camada 1" xmlns="http://www.w3.org/2000/svg" viewBox="0 0 66 32"><defs><style>.cls-1{fill:#fff;}</style></defs><title>tube</title><path class="cls-1" d="M319.24,582H273a5,5,0,0,0-5,5v18a5,5,0,0,0,5,5h53.93a5.24,5.24,0,0,0,4.65-7.28l-7.72-17.81A4.91,4.91,0,0,0,319.24,582Z" transform="translate(-266.99 -581)"/><path d="M326.92,611H273a6,6,0,0,1-6-6V587a6,6,0,0,1,6-6h46.25a5.88,5.88,0,0,1,5.54,3.51l7.71,17.81a6.25,6.25,0,0,1-.56,5.92A6,6,0,0,1,326.92,611ZM273,583a4,4,0,0,0-4,4v18a4,4,0,0,0,4,4h53.93a4,4,0,0,0,3.33-1.86,4.25,4.25,0,0,0,.4-4l-7.71-17.81a3.91,3.91,0,0,0-3.7-2.31H273Z" transform="translate(-266.99 -581)"/><path d="M331,613H269a1,1,0,0,1,0-2h62A1,1,0,0,1,331,613Z" transform="translate(-266.99 -581)"/><path class="cls-1" d="M323,587h1.75l5.64,13H323a2,2,0,0,1-2-2v-9A2,2,0,0,1,323,587Z" transform="translate(-266.99 -581)"/><path d="M330.41,601H323a3,3,0,0,1-3-3v-9a3,3,0,0,1,3-3h1.75a1,1,0,0,1,.92.6l5.57,12.83A1,1,0,0,1,330.41,601ZM323,588a1,1,0,0,0-1,1v9a1,1,0,0,0,1,1h5.87l-4.77-11H323Z" transform="translate(-266.99 -581)"/><rect class="cls-1" x="43.01" y="6" width="7" height="13" rx="2" ry="2"/><path d="M315,601h-3a3,3,0,0,1-3-3v-9a3,3,0,0,1,3-3h3a3,3,0,0,1,3,3v9A3,3,0,0,1,315,601Zm-3-13a1,1,0,0,0-1,1v9a1,1,0,0,0,1,1h3a1,1,0,0,0,1-1v-9a1,1,0,0,0-1-1h-3Z" transform="translate(-266.99 -581)"/><path class="cls-1" d="M288,600H268v5a5,5,0,0,0,5,5h15V600Z" transform="translate(-266.99 -581)"/><path d="M288,611H273a6,6,0,0,1-6-6v-5a1,1,0,0,1,1-1h20a1,1,0,0,1,1,1v10A1,1,0,0,1,288,611Zm-19-10v4a4,4,0,0,0,4,4h14v-8H269Z" transform="translate(-266.99 -581)"/><path class="cls-1" d="M290,587h14a2,2,0,0,1,2,2v21H288V589A2,2,0,0,1,290,587Z" transform="translate(-266.99 -581)"/><path d="M306,611H288a1,1,0,0,1-1-1V589a3,3,0,0,1,3-3h14a3,3,0,0,1,3,3v21A1,1,0,0,1,306,611Zm-17-2h16V589a1,1,0,0,0-1-1H290a1,1,0,0,0-1,1v20Z" transform="translate(-266.99 -581)"/><line class="cls-1" x1="30.01" y1="6" x2="30.01" y2="29"/><path d="M297,611a1,1,0,0,1-1-1V587a1,1,0,0,1,2,0v23A1,1,0,0,1,297,611Z" transform="translate(-266.99 -581)"/><rect class="cls-1" x="5.01" y="6" width="12" height="9" rx="2" ry="2"/><path d="M282,597h-8a3,3,0,0,1-3-3v-5a3,3,0,0,1,3-3h8a3,3,0,0,1,3,3v5A3,3,0,0,1,282,597Zm-8-9a1,1,0,0,0-1,1v5a1,1,0,0,0,1,1h8a1,1,0,0,0,1-1v-5a1,1,0,0,0-1-1h-8Z" transform="translate(-266.99 -581)"/></svg>