<svg id="Camada_1" data-name="Camada 1" xmlns="http://www.w3.org/2000/svg" viewBox="0 0 66 51"><defs><style>.cls-1{fill:#fff}</style></defs><title>bus</title><path class="cls-1" d="M368 408h64v23a5 5 0 0 1-5 5h-54a5 5 0 0 1-5-5v-23z" transform="translate(-367 -391)"/><path d="M427 437h-54a6 6 0 0 1-6-6v-23a1 1 0 0 1 1-1h64a1 1 0 0 1 1 1v23a6 6 0 0 1-6 6zm-58-28v22a4 4 0 0 0 4 4h54a4 4 0 0 0 4-4v-22h-62z" transform="translate(-367 -391)"/><path class="cls-1" d="M368 408h64v-11a5 5 0 0 0-5-5h-54a5 5 0 0 0-5 5v11z" transform="translate(-367 -391)"/><path d="M432 409h-64a1 1 0 0 1-1-1v-11a6 6 0 0 1 6-6h54a6 6 0 0 1 6 6v11a1 1 0 0 1-1 1zm-63-2h62v-10a4 4 0 0 0-4-4h-54a4 4 0 0 0-4 4v10z" transform="translate(-367 -391)"/><rect class="cls-1" x="23" y="6" width="12" height="7" rx="2" ry="2"/><path d="M400 405h-8a3 3 0 0 1-3-3v-3a3 3 0 0 1 3-3h8a3 3 0 0 1 3 3v3a3 3 0 0 1-3 3zm-8-7a1 1 0 0 0-1 1v3a1 1 0 0 0 1 1h8a1 1 0 0 0 1-1v-3a1 1 0 0 0-1-1h-8z" transform="translate(-367 -391)"/><rect class="cls-1" x="39" y="6" width="12" height="7" rx="2" ry="2"/><path d="M416 405h-8a3 3 0 0 1-3-3v-3a3 3 0 0 1 3-3h8a3 3 0 0 1 3 3v3a3 3 0 0 1-3 3zm-8-7a1 1 0 0 0-1 1v3a1 1 0 0 0 1 1h8a1 1 0 0 0 1-1v-3a1 1 0 0 0-1-1h-8z" transform="translate(-367 -391)"/><rect class="cls-1" x="7" y="6" width="12" height="7" rx="2" ry="2"/><path d="M384 405h-8a3 3 0 0 1-3-3v-3a3 3 0 0 1 3-3h8a3 3 0 0 1 3 3v3a3 3 0 0 1-3 3zm-8-7a1 1 0 0 0-1 1v3a1 1 0 0 0 1 1h8a1 1 0 0 0 1-1v-3a1 1 0 0 0-1-1h-8z" transform="translate(-367 -391)"/><rect class="cls-1" x="7" y="22" width="7" height="9" rx="2" ry="2"/><path d="M379 423h-3a3 3 0 0 1-3-3v-5a3 3 0 0 1 3-3h3a3 3 0 0 1 3 3v5a3 3 0 0 1-3 3zm-3-9a1 1 0 0 0-1 1v5a1 1 0 0 0 1 1h3a1 1 0 0 0 1-1v-5a1 1 0 0 0-1-1h-3z" transform="translate(-367 -391)"/><rect class="cls-1" x="18" y="22" width="7" height="9" rx="2" ry="2"/><path d="M390 423h-3a3 3 0 0 1-3-3v-5a3 3 0 0 1 3-3h3a3 3 0 0 1 3 3v5a3 3 0 0 1-3 3zm-3-9a1 1 0 0 0-1 1v5a1 1 0 0 0 1 1h3a1 1 0 0 0 1-1v-5a1 1 0 0 0-1-1h-3z" transform="translate(-367 -391)"/><rect class="cls-1" x="29" y="22" width="7" height="9" rx="2" ry="2"/><path d="M401 423h-3a3 3 0 0 1-3-3v-5a3 3 0 0 1 3-3h3a3 3 0 0 1 3 3v5a3 3 0 0 1-3 3zm-3-9a1 1 0 0 0-1 1v5a1 1 0 0 0 1 1h3a1 1 0 0 0 1-1v-5a1 1 0 0 0-1-1h-3z" transform="translate(-367 -391)"/><rect class="cls-1" x="40" y="22" width="7" height="9" rx="2" ry="2"/><path d="M412 423h-3a3 3 0 0 1-3-3v-5a3 3 0 0 1 3-3h3a3 3 0 0 1 3 3v5a3 3 0 0 1-3 3zm-3-9a1 1 0 0 0-1 1v5a1 1 0 0 0 1 1h3a1 1 0 0 0 1-1v-5a1 1 0 0 0-1-1h-3z" transform="translate(-367 -391)"/><path class="cls-1" d="M432 397h-6a2 2 0 0 0-2 2v3a2 2 0 0 0 2 2h6v-7z" transform="translate(-367 -391)"/><path d="M432 405h-6a3 3 0 0 1-3-3v-3a3 3 0 0 1 3-3h6a1 1 0 0 1 1 1v7a1 1 0 0 1-1 1zm-6-7a1 1 0 0 0-1 1v3a1 1 0 0 0 1 1h5v-5h-5zM427 437h-54a6 6 0 0 1-6-6v-6h66v6a6 6 0 0 1-6 6zm-58-10v4a4 4 0 0 0 4 4h54a4 4 0 0 0 4-4v-4h-62z" transform="translate(-367 -391)"/><circle class="cls-1" cx="54.5" cy="44.03" r="3.97"/><path d="M421.5 431.05a4 4 0 1 1-4 4 4 4 0 0 1 4-4m0-2a6 6 0 1 0 6 6 6 6 0 0 0-6-6z" transform="translate(-367 -391)"/><path d="M431 442h-62a1 1 0 0 1 0-2h62a1 1 0 0 1 0 2z" transform="translate(-367 -391)"/><path class="cls-1" d="M422 413h10v9h-10a2 2 0 0 1-2-2v-5a2 2 0 0 1 2-2z" transform="translate(-367 -391)"/><path d="M432 423h-10a3 3 0 0 1-3-3v-5a3 3 0 0 1 3-3h10a1 1 0 0 1 1 1v9a1 1 0 0 1-1 1zm-10-9a1 1 0 0 0-1 1v5a1 1 0 0 0 1 1h9v-7h-9z" transform="translate(-367 -391)"/><circle class="cls-1" cx="19.5" cy="44.03" r="3.97"/><path d="M386.5 431.05a4 4 0 1 1-4 4 4 4 0 0 1 4-4m0-2a6 6 0 1 0 6 6 6 6 0 0 0-6-6z" transform="translate(-367 -391)"/></svg>