<svg id="Camada_1" data-name="Camada 1" xmlns="http://www.w3.org/2000/svg" viewBox="0 0 66 32"><defs><style>.cls-1{fill:#fff}</style></defs><title>tube</title><path class="cls-1" d="M319.24 582H273a5 5 0 0 0-5 5v18a5 5 0 0 0 5 5h53.93a5.24 5.24 0 0 0 4.65-7.28l-7.72-17.81a4.91 4.91 0 0 0-4.62-2.91z" transform="translate(-266.99 -581)"/><path d="M326.92 611H273a6 6 0 0 1-6-6v-18a6 6 0 0 1 6-6h46.25a5.88 5.88 0 0 1 5.54 3.51l7.71 17.81a6.25 6.25 0 0 1-.56 5.92 6 6 0 0 1-5.02 2.76zM273 583a4 4 0 0 0-4 4v18a4 4 0 0 0 4 4h53.93a4 4 0 0 0 3.33-1.86 4.25 4.25 0 0 0 .4-4l-7.71-17.81a3.91 3.91 0 0 0-3.7-2.31H273zM331 613h-62a1 1 0 0 1 0-2h62a1 1 0 0 1 0 2z" transform="translate(-266.99 -581)"/><path class="cls-1" d="M323 587h1.75l5.64 13H323a2 2 0 0 1-2-2v-9a2 2 0 0 1 2-2z" transform="translate(-266.99 -581)"/><path d="M330.41 601H323a3 3 0 0 1-3-3v-9a3 3 0 0 1 3-3h1.75a1 1 0 0 1 .92.6l5.57 12.83a1 1 0 0 1-.83 1.57zM323 588a1 1 0 0 0-1 1v9a1 1 0 0 0 1 1h5.87l-4.77-11H323z" transform="translate(-266.99 -581)"/><rect class="cls-1" x="43.01" y="6" width="7" height="13" rx="2" ry="2"/><path d="M315 601h-3a3 3 0 0 1-3-3v-9a3 3 0 0 1 3-3h3a3 3 0 0 1 3 3v9a3 3 0 0 1-3 3zm-3-13a1 1 0 0 0-1 1v9a1 1 0 0 0 1 1h3a1 1 0 0 0 1-1v-9a1 1 0 0 0-1-1h-3z" transform="translate(-266.99 -581)"/><path class="cls-1" d="M288 600h-20v5a5 5 0 0 0 5 5h15v-10z" transform="translate(-266.99 -581)"/><path d="M288 611h-15a6 6 0 0 1-6-6v-5a1 1 0 0 1 1-1h20a1 1 0 0 1 1 1v10a1 1 0 0 1-1 1zm-19-10v4a4 4 0 0 0 4 4h14v-8h-18z" transform="translate(-266.99 -581)"/><path class="cls-1" d="M290 587h14a2 2 0 0 1 2 2v21h-18v-21a2 2 0 0 1 2-2z" transform="translate(-266.99 -581)"/><path d="M306 611h-18a1 1 0 0 1-1-1v-21a3 3 0 0 1 3-3h14a3 3 0 0 1 3 3v21a1 1 0 0 1-1 1zm-17-2h16v-20a1 1 0 0 0-1-1h-14a1 1 0 0 0-1 1v20z" transform="translate(-266.99 -581)"/><path class="cls-1" d="M30.01 6v23"/><path d="M297 611a1 1 0 0 1-1-1v-23a1 1 0 0 1 2 0v23a1 1 0 0 1-1 1z" transform="translate(-266.99 -581)"/><rect class="cls-1" x="5.01" y="6" width="12" height="9" rx="2" ry="2"/><path d="M282 597h-8a3 3 0 0 1-3-3v-5a3 3 0 0 1 3-3h8a3 3 0 0 1 3 3v5a3 3 0 0 1-3 3zm-8-9a1 1 0 0 0-1 1v5a1 1 0 0 0 1 1h8a1 1 0 0 0 1-1v-5a1 1 0 0 0-1-1h-8z" transform="translate(-266.99 -581)"/></svg>