<svg xmlns="http://www.w3.org/2000/svg" id="Layer_1" data-name="Layer 1" viewBox="0 0 400 400"><defs><style>.cls-1,.cls-2{fill:#fff}.cls-3{fill:#e71d36}</style></defs><title>loader</title><path class="cls-1" d="M60.07 345.5V142.71a30 30 0 0 1 30-30v-30a15 15 0 0 1 15-15h15V7.51a7.51 7.51 0 1 1 15 0V67.6h15a15 15 0 0 1 15 15v30a30 30 0 0 1 30 30v60.09h52.58v-44.96h30V135.2h45.07v22.53h7.51V345.5H60.07zM150.2 90.13a7.51 7.51 0 0 0-7.51-7.51h-30a7.51 7.51 0 0 0-7.51 7.51v22.53h45.02V90.13zm30 52.58a15 15 0 0 0-15-15H90.11a15 15 0 0 0-15 15v187.77h105.13V142.71zm67.6 75.11h-52.53v112.66h52.58V217.81zm67.6-45.07h-52.54v157.73h52.58V172.75zm-30 22.53h7.51a7.5 7.5 0 0 1 7.51 7.51v7.51a7.5 7.5 0 0 1-7.51 7.51h-7.51a7.5 7.5 0 0 1-7.51-7.51v-7.51a7.5 7.5 0 0 1 7.51-7.51zm0 45.07h7.51a7.5 7.5 0 0 1 7.51 7.51v7.51a7.5 7.5 0 0 1-7.51 7.51h-7.51a7.5 7.5 0 0 1-7.51-7.51v-7.51a7.5 7.5 0 0 1 7.51-7.51zm0 45.07h7.51a7.5 7.5 0 0 1 7.51 7.51v7.51a7.5 7.5 0 0 1-7.51 7.51h-7.51a7.5 7.5 0 0 1-7.51-7.51v-7.51a7.5 7.5 0 0 1 7.51-7.52zm-67.6-45.07h7.51a7.5 7.5 0 0 1 7.51 7.51v7.51a7.5 7.5 0 0 1-7.51 7.51h-7.51a7.5 7.5 0 0 1-7.51-7.51v-7.51a7.5 7.5 0 0 1 7.51-7.51zm0 45.07h7.51a7.5 7.5 0 0 1 7.51 7.51v7.51a7.5 7.5 0 0 1-7.51 7.51h-7.51a7.5 7.5 0 0 1-7.51-7.51v-7.51a7.5 7.5 0 0 1 7.51-7.52zm-67.6 22.53h-7.51a7.5 7.5 0 0 1-7.51-7.51v-7.51a7.51 7.51 0 0 1 7.51-7.51h7.51a7.51 7.51 0 0 1 7.51 7.51v7.51a7.5 7.5 0 0 1-7.51 7.51zm0-45.07h-7.51a7.5 7.5 0 0 1-7.51-7.51v-7.51a7.51 7.51 0 0 1 7.51-7.51h7.51a7.51 7.51 0 0 1 7.51 7.51v7.51a7.5 7.5 0 0 1-7.51 7.51zm0-45.07h-7.51a7.5 7.5 0 0 1-7.51-7.51v-7.51a7.51 7.51 0 0 1 7.51-7.51h7.51a7.51 7.51 0 0 1 7.51 7.51v7.51a7.5 7.5 0 0 1-7.51 7.51zm0-45.07h-7.51a7.5 7.5 0 0 1-7.51-7.51v-7.51a7.51 7.51 0 0 1 7.51-7.51h7.51a7.51 7.51 0 0 1 7.51 7.51v7.51a7.5 7.5 0 0 1-7.51 7.52zm-37.55 135.2h-7.51a7.5 7.5 0 0 1-7.51-7.51v-7.51a7.5 7.5 0 0 1 7.51-7.51h7.51a7.5 7.5 0 0 1 7.51 7.51v7.51a7.5 7.5 0 0 1-7.51 7.52zm0-45.07h-7.51a7.5 7.5 0 0 1-7.51-7.51v-7.51a7.5 7.5 0 0 1 7.51-7.51h7.51a7.5 7.5 0 0 1 7.51 7.51v7.51a7.5 7.5 0 0 1-7.51 7.52zm0-45.07h-7.51a7.5 7.5 0 0 1-7.51-7.51v-7.51a7.51 7.51 0 0 1 7.51-7.51h7.51a7.51 7.51 0 0 1 7.51 7.51v7.51a7.5 7.5 0 0 1-7.51 7.52zm0-45.07h-7.51a7.5 7.5 0 0 1-7.51-7.51v-7.51a7.51 7.51 0 0 1 7.51-7.51h7.51a7.51 7.51 0 0 1 7.51 7.51v7.51a7.5 7.5 0 0 1-7.51 7.53z"><animateTransform attributeName="transform" attributeType="XML" type="translate" from="450 0" to="-450 0" dur="5s" repeatCount="indefinite"/></path><circle class="cls-3" cx="150.28" cy="348.65" r="13.77"/><circle class="cls-3" cx="271.61" cy="348.74" r="13.77"/><rect class="cls-3" x="89.44" y="202.93" width="215.11" height="148.14" rx="12" ry="12"/><path class="cls-1" d="M257.83 351.07H164v.09a13.65 13.65 0 0 1-1.89 6.85h97.63a13.65 13.65 0 0 1-1.89-6.85s-.02-.06-.02-.09z"/><path class="cls-1" d="M308 253.92H86a3.47 3.47 0 0 0-3.47 3.47v79.8A20.84 20.84 0 0 0 103.32 358h35a13.65 13.65 0 0 1-1.89-6.85v-.09h-33.11a13.89 13.89 0 0 1-13.88-13.88v-76.32h215.12v76.33a13.89 13.89 0 0 1-13.88 13.88h-5.29v.09a13.65 13.65 0 0 1-1.89 6.85h7.17a20.84 20.84 0 0 0 20.82-20.82v-79.8a3.47 3.47 0 0 0-3.49-3.47z"/><path class="cls-1" d="M308 258.45H86a3.47 3.47 0 0 1-3.5-3.45v-38.19A20.84 20.84 0 0 1 103.32 196h187.36a20.84 20.84 0 0 1 20.82 20.82V255a3.47 3.47 0 0 1-3.5 3.45zm-218.56-6.94h215.12v-34.7a13.89 13.89 0 0 0-13.88-13.88H103.32a13.89 13.89 0 0 0-13.88 13.88v34.7z"/><path class="cls-1" d="M197 244.57h-27.76a10.42 10.42 0 0 1-10.41-10.41v-10.41a10.42 10.42 0 0 1 10.41-10.41H197a10.42 10.42 0 0 1 10.41 10.41v10.41A10.42 10.42 0 0 1 197 244.57zm-27.76-24.29a3.47 3.47 0 0 0-3.47 3.47v10.41a3.47 3.47 0 0 0 3.47 3.47H197a3.47 3.47 0 0 0 3.47-3.47v-10.41a3.47 3.47 0 0 0-3.47-3.47h-27.76zM252.51 244.57h-27.75a10.42 10.42 0 0 1-10.41-10.41v-10.41a10.42 10.42 0 0 1 10.41-10.41h27.76a10.42 10.42 0 0 1 10.41 10.41v10.41a10.42 10.42 0 0 1-10.42 10.41zm-27.76-24.29a3.47 3.47 0 0 0-3.47 3.47v10.41a3.47 3.47 0 0 0 3.47 3.47h27.76a3.47 3.47 0 0 0 3.47-3.47v-10.41a3.47 3.47 0 0 0-3.47-3.47h-27.75zM141.49 244.57h-27.76a10.42 10.42 0 0 1-10.41-10.41v-10.41a10.42 10.42 0 0 1 10.41-10.41h27.76a10.42 10.42 0 0 1 10.41 10.41v10.41a10.42 10.42 0 0 1-10.41 10.41zm-27.76-24.29a3.47 3.47 0 0 0-3.47 3.47v10.41a3.47 3.47 0 0 0 3.47 3.47h27.76a3.47 3.47 0 0 0 3.47-3.47v-10.41a3.47 3.47 0 0 0-3.47-3.47h-27.76zM124.14 307h-10.41a10.42 10.42 0 0 1-10.41-10.41v-17.33a10.42 10.42 0 0 1 10.41-10.41h10.41a10.42 10.42 0 0 1 10.41 10.41v17.35A10.42 10.42 0 0 1 124.14 307zm-10.41-31.23a3.47 3.47 0 0 0-3.47 3.47v17.35a3.47 3.47 0 0 0 3.47 3.47h10.41a3.47 3.47 0 0 0 3.47-3.47v-17.33a3.47 3.47 0 0 0-3.47-3.47h-10.41zM162.3 307h-10.4a10.42 10.42 0 0 1-10.41-10.41v-17.33a10.42 10.42 0 0 1 10.41-10.41h10.4a10.42 10.42 0 0 1 10.41 10.41v17.35A10.42 10.42 0 0 1 162.3 307zm-10.4-31.21a3.47 3.47 0 0 0-3.47 3.47v17.35a3.47 3.47 0 0 0 3.47 3.47h10.4a3.47 3.47 0 0 0 3.47-3.47v-17.35a3.47 3.47 0 0 0-3.47-3.47h-10.4zM200.47 307h-10.41a10.42 10.42 0 0 1-10.41-10.41v-17.33a10.42 10.42 0 0 1 10.41-10.41h10.41a10.42 10.42 0 0 1 10.41 10.41v17.35A10.42 10.42 0 0 1 200.47 307zm-10.41-31.23a3.47 3.47 0 0 0-3.47 3.47v17.35a3.47 3.47 0 0 0 3.47 3.47h10.41a3.47 3.47 0 0 0 3.47-3.47v-17.33a3.47 3.47 0 0 0-3.47-3.47h-10.41zM238.63 307h-10.4a10.42 10.42 0 0 1-10.41-10.41v-17.33a10.42 10.42 0 0 1 10.41-10.41h10.41A10.42 10.42 0 0 1 249 279.26v17.35A10.42 10.42 0 0 1 238.63 307zm-10.41-31.23a3.47 3.47 0 0 0-3.47 3.47v17.35a3.47 3.47 0 0 0 3.47 3.47h10.41a3.47 3.47 0 0 0 3.47-3.47v-17.33a3.47 3.47 0 0 0-3.47-3.47h-10.4zM308 244.57h-20.79a10.42 10.42 0 0 1-10.41-10.41v-10.41a10.42 10.42 0 0 1 10.41-10.41H308a3.47 3.47 0 0 1 3.47 3.47v24.29a3.47 3.47 0 0 1-3.47 3.47zm-20.82-24.29a3.47 3.47 0 0 0-3.47 3.47v10.41a3.47 3.47 0 0 0 3.47 3.47h17.35v-17.35h-17.32zM271.61 335a13.79 13.79 0 1 1-13.79 13.79A13.79 13.79 0 0 1 271.61 335m0-6.94a20.73 20.73 0 1 0 20.73 20.73A20.75 20.75 0 0 0 271.61 328z"/><path class="cls-1" d="M304.56 373H89.44a3.5 3.5 0 0 1 0-7h215.12a3.5 3.5 0 0 1 0 7zM308 307h-34.7a10.42 10.42 0 0 1-10.41-10.41v-17.33a10.42 10.42 0 0 1 10.41-10.41H308a3.47 3.47 0 0 1 3.47 3.47v31.23A3.47 3.47 0 0 1 308 307zm-34.7-31.23a3.47 3.47 0 0 0-3.47 3.47v17.35a3.47 3.47 0 0 0 3.47 3.47h31.23v-24.27h-31.2z"/><path class="cls-1" d="M150.18 335a13.79 13.79 0 1 1-13.79 13.79A13.79 13.79 0 0 1 150.18 335m0-6.94a20.73 20.73 0 1 0 20.73 20.73A20.75 20.75 0 0 0 150.18 328z"/></svg>